<?xml version="1.0" encoding="UTF-8" standalone="no"?>
<!DOCTYPE svg PUBLIC "-//W3C//DTD SVG 1.1//EN" "http://www.w3.org/Graphics/SVG/1.1/DTD/svg11.dtd">
<svg width="100%" height="100%" viewBox="0 0 615 308" version="1.1" xmlns="http://www.w3.org/2000/svg" xmlns:xlink="http://www.w3.org/1999/xlink" xml:space="preserve" xmlns:serif="http://www.serif.com/" style="fill-rule:evenodd;clip-rule:evenodd;stroke-linejoin:round;stroke-miterlimit:2;">
    <g transform="matrix(2.38296,0,0,2.38296,-343.849,-153.636)">
        <g transform="matrix(1.0073,0,0,1.0073,-1.05398,-1.29411)">
            <path d="M151.861,183.673L151.861,75.012C151.861,72.403 149.746,70.287 147.136,70.287L144.295,70.287L144.295,65.29L271.559,65.29L271.559,70.275L269.197,70.275C267.892,70.275 266.835,71.332 266.835,72.637C266.835,73.264 267.083,73.864 267.526,74.307C267.969,74.75 268.57,74.999 269.197,74.999L271.559,74.999L271.559,113.988L250.243,129.343L229.218,129.343C229.218,129.343 229.218,102.55 229.218,90.366C229.218,87.105 226.574,84.461 223.313,84.461L222.325,84.461C222.325,84.461 196.23,112.017 190.065,118.527C189.234,119.405 188.771,120.567 188.771,121.776C188.771,121.931 188.771,122.092 188.771,122.256C188.771,123.509 189.269,124.711 190.155,125.597C191.041,126.483 192.243,126.98 193.496,126.98L193.901,126.98L193.901,131.705L193.496,131.705C192.243,131.705 191.041,132.203 190.155,133.089C189.269,133.975 188.771,135.176 188.771,136.429C188.771,136.594 188.771,136.754 188.771,136.909C188.771,138.118 189.234,139.28 190.065,140.158C196.23,146.668 222.325,174.224 222.325,174.224L223.586,174.224C225.08,174.224 226.513,173.631 227.569,172.575C228.625,171.519 229.218,170.086 229.218,168.592C229.218,168.592 229.218,168.592 229.218,168.592L250.243,168.592L271.854,183.946L271.854,193.395L144.295,193.395L144.295,188.398L147.136,188.398C149.746,188.398 151.861,186.283 151.861,183.673ZM189.266,185.016C189.244,186.601 189.861,188.129 190.977,189.255C192.094,190.381 193.616,191.011 195.201,191.003C201.73,190.969 212.37,190.916 220.955,190.872C223.313,190.86 225.437,189.447 226.36,187.278C227.283,185.108 226.826,182.598 225.2,180.892C214.236,169.393 197.646,151.992 197.646,151.992L195.545,151.992C192.315,151.992 189.684,154.587 189.64,157.816C189.539,165.13 189.368,177.613 189.266,185.016ZM189.266,73.669C189.244,72.084 189.861,70.556 190.977,69.43C192.094,68.304 193.616,67.675 195.201,67.683C201.73,67.716 212.37,67.77 220.955,67.813C223.313,67.825 225.437,69.238 226.36,71.407C227.283,73.577 226.826,76.087 225.2,77.794C214.236,89.292 197.646,106.693 197.646,106.693L195.545,106.693C192.315,106.693 189.684,104.099 189.64,100.869C189.539,93.556 189.368,81.072 189.266,73.669Z"/>
        </g>
        <g transform="matrix(1.01162,0,0,1.01162,-4.67471,-0.868917)">
            <path d="M275.101,64.591L275.101,69.589L278.361,69.589C279.614,69.589 280.816,70.087 281.702,70.973C282.588,71.859 283.085,73.06 283.085,74.313C283.085,93.275 283.085,163.74 283.085,182.701C283.085,185.311 280.97,187.426 278.361,187.426C276.509,187.426 275.073,187.426 275.073,187.426L275.073,192.15L325.605,192.15L325.605,187.426L324.302,187.426C321.693,187.426 319.578,185.311 319.578,182.702C319.578,177.552 319.578,169.566 319.578,165.959C319.578,164.75 320.041,163.588 320.872,162.71C327.037,156.2 353.132,128.644 353.132,128.644L354.103,128.644C355.672,128.644 357.176,129.268 358.284,130.38C359.392,131.491 360.013,132.997 360.008,134.566C359.975,146.257 359.901,172.086 359.87,182.715C359.863,185.319 357.75,187.426 355.146,187.426C354.445,187.426 353.952,187.426 353.952,187.426L353.952,192.15L402.377,192.15L402.377,187.426L401.196,187.426C398.586,187.426 396.471,185.311 396.471,182.701C396.471,162.799 396.471,86.144 396.471,71.678C396.471,70.373 397.529,69.316 398.833,69.316C400.478,69.316 402.377,69.316 402.377,69.316L402.377,64.591L275.101,64.591ZM320.028,72.931C320.018,71.352 320.641,69.836 321.757,68.719C322.873,67.602 324.389,66.979 325.968,66.988C333.531,67.032 346.473,67.106 353.986,67.15C357.234,67.169 359.857,69.807 359.857,73.055C359.857,86.438 359.857,118.056 359.857,118.056L328.453,150.877L326.394,150.877C323.148,150.877 320.51,148.256 320.489,145.009C320.391,129.654 320.127,88.409 320.028,72.931Z"/>
        </g>
    </g>
</svg>
